<?xml version="1.0" encoding="UTF-8" standalone="no"?>
<!-- Created with Inkscape (http://www.inkscape.org/) -->

<svg
   xmlns:dc="http://purl.org/dc/elements/1.1/"
   xmlns:cc="http://creativecommons.org/ns#"
   xmlns:rdf="http://www.w3.org/1999/02/22-rdf-syntax-ns#"
   xmlns:svg="http://www.w3.org/2000/svg"
   xmlns="http://www.w3.org/2000/svg"
   xmlns:sodipodi="http://sodipodi.sourceforge.net/DTD/sodipodi-0.dtd"
   xmlns:inkscape="http://www.inkscape.org/namespaces/inkscape"
   width="500"
   height="400"
   viewBox="0 0 132.29167 105.83333"
   version="1.1"
   id="svg8"
   inkscape:version="0.92.4 (5da689c313, 2019-01-14)"
   sodipodi:docname="bed.svg">
  <defs
     id="defs2" />
  <sodipodi:namedview
     id="base"
     pagecolor="#ffffff"
     bordercolor="#666666"
     borderopacity="1.0"
     inkscape:pageopacity="0.0"
     inkscape:pageshadow="2"
     inkscape:zoom="0.7"
     inkscape:cx="154.71365"
     inkscape:cy="299.99994"
     inkscape:document-units="mm"
     inkscape:current-layer="layer1"
     showgrid="false"
     inkscape:window-width="2560"
     inkscape:window-height="1315"
     inkscape:window-x="-13"
     inkscape:window-y="1414"
     inkscape:window-maximized="1"
     units="px"
     fit-margin-top="0"
     fit-margin-left="0"
     fit-margin-right="0"
     fit-margin-bottom="0" />
  <metadata
     id="metadata5">
    <rdf:RDF>
      <cc:Work
         rdf:about="">
        <dc:format>image/svg+xml</dc:format>
        <dc:type
           rdf:resource="http://purl.org/dc/dcmitype/StillImage" />
        <dc:title></dc:title>
      </cc:Work>
    </rdf:RDF>
  </metadata>
  <g
     inkscape:label="Layer 1"
     inkscape:groupmode="layer"
     id="layer1"
     transform="translate(-0.79657334,-190.77557)">
    <path
       style="fill:#a0a0a0;stroke:none;stroke-width:0.19451913"
       d="m 0.87163364,281.36985 c -0.0650132,-8.38148 -0.0932635,-16.48316 -0.0627784,-18.00372 l 0.0554274,-2.76467 5.57415856,8.2351 c 3.0657871,4.5293 5.6634328,8.305 5.7725468,8.39043 0.109114,0.0854 3.891972,2.20591 8.406352,4.71216 l 8.207964,4.55681 10.591297,0.6046 c 5.825212,0.33252 14.594805,0.84531 19.487984,1.13952 8.495978,0.51084 9.392807,0.52464 19.911636,0.30646 l 11.014949,-0.22848 11.94698,-2.12488 11.94698,-2.12488 6.58567,-3.59344 6.58566,-3.59345 2.32078,-3.81232 c 1.27643,-2.09679 2.77394,-4.60867 3.32779,-5.58195 l 1.00701,-1.76961 0.10353,6.45855 c 0.057,3.55221 0.11414,10.50277 0.12711,15.44569 l 0.0236,8.98714 H 67.398035 0.98983942 Z"
       id="path4536"
       inkscape:connector-curvature="0" />
  </g>
</svg>
